<svg width="37" height="37" viewBox="0 0 37 37" fill="none" xmlns="http://www.w3.org/2000/svg">
<path d="M35.54 26.0224H10.9792L12.2124 23.2513L32.7024 23.2104C33.3953 23.2104 33.9892 22.6643 34.1129 21.909L36.9505 4.38635C37.0247 3.92679 36.9134 3.45357 36.6412 3.09411C36.5066 2.9172 36.3388 2.77469 36.1494 2.67648C35.9599 2.57827 35.7534 2.52669 35.5441 2.52534L9.47787 2.42978L9.25516 1.27404C9.11493 0.536919 8.51276 0 7.82811 0H1.45591C1.06978 0 0.699464 0.169225 0.426427 0.470447C0.15339 0.771669 0 1.18021 0 1.60621C0 2.0322 0.15339 2.44074 0.426427 2.74196C0.699464 3.04319 1.06978 3.21241 1.45591 3.21241H6.64853L7.62189 8.31769L10.0182 21.1173L6.93312 26.673C6.77291 26.9116 6.67641 27.1948 6.65454 27.4908C6.63268 27.7867 6.68631 28.0834 6.80939 28.3475C7.05685 28.889 7.5559 29.2302 8.10857 29.2302H10.6987C10.1465 30.0393 9.84826 31.0249 9.84907 32.0377C9.84907 34.613 11.7463 36.7061 14.0807 36.7061C16.4151 36.7061 18.3123 34.613 18.3123 32.0377C18.3123 31.023 18.0071 30.0356 17.4627 29.2302H24.1071C23.5549 30.0393 23.2567 31.0249 23.2575 32.0377C23.2575 34.613 25.1547 36.7061 27.4891 36.7061C29.8235 36.7061 31.7208 34.613 31.7208 32.0377C31.7208 31.023 31.4156 30.0356 30.8711 29.2302H35.5441C36.3442 29.2302 37 28.5113 37 27.624C36.9976 27.1985 36.8428 26.7912 36.5692 26.4912C36.2957 26.1911 35.9257 26.0226 35.54 26.0224ZM10.0842 5.59669L33.8325 5.68315L31.5063 20.0525L12.8516 20.0889L10.0842 5.59669ZM14.0807 33.4755C13.3631 33.4755 12.7774 32.8294 12.7774 32.0377C12.7774 31.2459 13.3631 30.5998 14.0807 30.5998C14.7984 30.5998 15.384 31.2459 15.384 32.0377C15.384 32.419 15.2467 32.7847 15.0023 33.0544C14.7579 33.324 14.4264 33.4755 14.0807 33.4755ZM27.4891 33.4755C26.7715 33.4755 26.1858 32.8294 26.1858 32.0377C26.1858 31.2459 26.7715 30.5998 27.4891 30.5998C28.2068 30.5998 28.7924 31.2459 28.7924 32.0377C28.7924 32.419 28.6551 32.7847 28.4107 33.0544C28.1663 33.324 27.8348 33.4755 27.4891 33.4755Z" fill="white"/>
</svg>
