<svg width="22" height="25" viewBox="0 0 22 25" fill="none" xmlns="http://www.w3.org/2000/svg">
<path d="M21.9339 22.4418L14.7922 14.7316C15.9004 13.1848 16.4999 11.2937 16.4999 9.30454C16.4999 6.92351 15.6392 4.69093 14.0827 3.00758C12.5262 1.32423 10.4527 0.397949 8.24996 0.397949C6.04722 0.397949 3.97373 1.3272 2.41724 3.00758C0.857996 4.68796 0 6.92351 0 9.30454C0 11.6826 0.860746 13.9211 2.41724 15.6015C3.97373 17.2849 6.04447 18.2111 8.24996 18.2111C10.0925 18.2111 11.8414 17.5639 13.2742 16.3704L20.4159 24.0776C20.4369 24.1002 20.4617 24.1182 20.4891 24.1304C20.5165 24.1427 20.5458 24.149 20.5754 24.149C20.605 24.149 20.6344 24.1427 20.6617 24.1304C20.6891 24.1182 20.714 24.1002 20.7349 24.0776L21.9339 22.7862C21.9549 22.7635 21.9715 22.7367 21.9828 22.7072C21.9942 22.6776 22 22.6459 22 22.614C22 22.582 21.9942 22.5503 21.9828 22.5208C21.9715 22.4912 21.9549 22.4644 21.9339 22.4418ZM12.6059 14.0072C11.44 15.2631 9.89446 15.9548 8.24996 15.9548C6.60547 15.9548 5.05998 15.2631 3.89398 14.0072C2.73074 12.7484 2.08999 11.0799 2.08999 9.30454C2.08999 7.52916 2.73074 5.85769 3.89398 4.60186C5.05998 3.34603 6.60547 2.65429 8.24996 2.65429C9.89446 2.65429 11.4427 3.34306 12.6059 4.60186C13.7692 5.86066 14.4099 7.52916 14.4099 9.30454C14.4099 11.0799 13.7692 12.7514 12.6059 14.0072Z" fill="#FFFCFC"/>
</svg>
