<svg width="65" height="67" viewBox="0 0 65 67" fill="none" xmlns="http://www.w3.org/2000/svg">
<g filter="url(#filter0_d_630_2)">
<path fill-rule="evenodd" clip-rule="evenodd" d="M42.6667 22.875C42.6667 25.5714 41.5956 28.1573 39.689 30.064C37.7823 31.9706 35.1964 33.0417 32.5 33.0417C29.8037 33.0417 27.2177 31.9706 25.3111 30.064C23.4045 28.1573 22.3334 25.5714 22.3334 22.875C22.3334 20.1787 23.4045 17.5927 25.3111 15.6861C27.2177 13.7795 29.8037 12.7084 32.5 12.7084C35.1964 12.7084 37.7823 13.7795 39.689 15.6861C41.5956 17.5927 42.6667 20.1787 42.6667 22.875ZM37.5834 22.875C37.5834 24.2232 37.0478 25.5162 36.0945 26.4695C35.1412 27.4228 33.8482 27.9584 32.5 27.9584C31.1519 27.9584 29.8589 27.4228 28.9056 26.4695C27.9523 25.5162 27.4167 24.2232 27.4167 22.875C27.4167 21.5269 27.9523 20.2339 28.9056 19.2806C29.8589 18.3273 31.1519 17.7917 32.5 17.7917C33.8482 17.7917 35.1412 18.3273 36.0945 19.2806C37.0478 20.2339 37.5834 21.5269 37.5834 22.875Z" fill="white"/>
<path fill-rule="evenodd" clip-rule="evenodd" d="M32.5 2.54169C17.0594 2.54169 4.54169 15.0594 4.54169 30.5C4.54169 45.9406 17.0594 58.4584 32.5 58.4584C47.9406 58.4584 60.4584 45.9406 60.4584 30.5C60.4584 15.0594 47.9406 2.54169 32.5 2.54169ZM9.62502 30.5C9.62502 35.8121 11.4372 40.7023 14.4745 44.5859C16.6076 41.7848 19.3594 39.5147 22.5149 37.953C25.6705 36.3913 29.1444 35.5803 32.6652 35.5834C36.1405 35.5801 39.5707 36.3701 42.6945 37.8932C45.8182 39.4163 48.5531 41.6323 50.6907 44.3724C52.893 41.4841 54.3757 38.1129 55.0164 34.5377C55.657 30.9625 55.4371 27.2862 54.3749 23.8129C53.3126 20.3395 51.4385 17.1691 48.9077 14.5639C46.3769 11.9586 43.2621 9.9935 39.821 8.83106C36.3799 7.66863 32.7115 7.34232 29.1192 7.87912C25.527 8.41592 22.1142 9.80041 19.1633 11.918C16.2124 14.0357 13.8081 16.8255 12.1495 20.0568C10.4908 23.2881 9.62548 26.8679 9.62502 30.5ZM32.5 53.375C27.2488 53.3829 22.1561 51.5764 18.0837 48.2612C19.7229 45.9146 21.9047 43.9986 24.4434 42.6763C26.9822 41.3541 29.8028 40.6646 32.6652 40.6667C35.492 40.6644 38.2785 41.3366 40.7933 42.6274C43.3081 43.9182 45.4787 45.7903 47.1248 48.0884C43.0207 51.5112 37.8441 53.3825 32.5 53.375Z" fill="white"/>
</g>
<defs>
<filter id="filter0_d_630_2" x="-2" y="0" width="69" height="69" filterUnits="userSpaceOnUse" color-interpolation-filters="sRGB">
<feFlood flood-opacity="0" result="BackgroundImageFix"/>
<feColorMatrix in="SourceAlpha" type="matrix" values="0 0 0 0 0 0 0 0 0 0 0 0 0 0 0 0 0 0 127 0" result="hardAlpha"/>
<feOffset dy="4"/>
<feGaussianBlur stdDeviation="2"/>
<feComposite in2="hardAlpha" operator="out"/>
<feColorMatrix type="matrix" values="0 0 0 0 0 0 0 0 0 0 0 0 0 0 0 0 0 0 0.25 0"/>
<feBlend mode="normal" in2="BackgroundImageFix" result="effect1_dropShadow_630_2"/>
<feBlend mode="normal" in="SourceGraphic" in2="effect1_dropShadow_630_2" result="shape"/>
</filter>
</defs>
</svg>
